<svg version="1.1" id="Layer_2" xmlns="http://www.w3.org/2000/svg" xmlns:xlink="http://www.w3.org/1999/xlink" x="0px" y="0px" viewBox="0 0 1248.5 1375.7">
	<style>
		.st0{
			fill:none;stroke:#000;stroke-width:2;stroke-miterlimit:10;
		}
		.st1{
			fill:none;stroke:red;stroke-width:4;stroke-miterlimit:10;
		}
	</style>
	<g>
	<circle cx="50" cy="50" r="2"></circle>
	<circle cx="100" cy="50" r="2"></circle>
	<circle cx="150" cy="50" r="2"></circle>
	<circle cx="200" cy="50" r="2"></circle>
	<circle cx="50" cy="100" r="2"></circle>
	<circle cx="100" cy="100" r="2"></circle>
	<circle cx="150" cy="100" r="2"></circle>
	<circle cx="200" cy="100" r="2"></circle>
	<circle cx="50" cy="150" r="2"></circle>
	<circle cx="100" cy="150" r="2"></circle>
	<circle cx="150" cy="150" r="2"></circle>
	<circle cx="200" cy="150" r="2"></circle>

	
	<path class="st1" d="M50,50,95,95C95,95,100,100,105,100L150,100"></path>
	<path class="st1" d="M50,50,95,95C95,95,100,100,105,100L150,100"></path>
	<path class="st1" d="M50,50,90,90C90,90,100,100,100,110L100,150"></path>
	<path class="st1" d="M50,50,90,90C90,90,100,100,100,110L100,150"></path>
	<!--

	-->
	</g>
</svg>