<svg version="1.1" id="Layer_2" xmlns="http://www.w3.org/2000/svg" xmlns:xlink="http://www.w3.org/1999/xlink" x="0px" y="0px" viewBox="0 0 1248.5 1375.7">
	<style>
		.st0{
			fill:none;stroke:#000;stroke-width:2;stroke-miterlimit:10;
		}
		.st1{
			fill:none;stroke:red;stroke-width:4;stroke-miterlimit:10;
		}
	</style>
	<g>
	<circle cx="50" cy="50" r="2"></circle>
	<circle cx="100" cy="50" r="2"></circle>
	<circle cx="150" cy="50" r="2"></circle>
	<circle cx="200" cy="50" r="2"></circle>
	<circle cx="50" cy="100" r="2"></circle>
	<circle cx="100" cy="100" r="2"></circle>
	<circle cx="150" cy="100" r="2"></circle>
	<circle cx="200" cy="100" r="2"></circle>
	<circle cx="50" cy="150" r="2"></circle>
	<circle cx="100" cy="150" r="2"></circle>
	<circle cx="150" cy="150" r="2"></circle>
	<circle cx="200" cy="150" r="2"></circle>
	<circle cx="50" cy="200" r="2"></circle>
	<circle cx="100" cy="200" r="2"></circle>
	<circle cx="150" cy="200" r="2"></circle>
	<circle cx="200" cy="200" r="2"></circle>

	
	
	<path class="st1" d="M50,50L50,95C50,95,50,100,55,100L200,100"></path>
	<path class="st1" d="M200,100L200,55C200,55,200,50,195,50L50,50"></path>
	<path class="st1" d="M50,50L50,195C50,195,50,200,55,200L100,200"></path>
	<path class="st1" d="M100,200L100,55C100,55,100,50,95,50L50,50"></path>
	<!--

	
	
	-->
	</g>
</svg>